<?xml version="1.0" encoding="utf-8"?>
<!-- Generator: Adobe Illustrator 17.1.0, SVG Export Plug-In . SVG Version: 6.00 Build 0)  -->
<!DOCTYPE svg PUBLIC "-//W3C//DTD SVG 1.1//EN" "http://www.w3.org/Graphics/SVG/1.1/DTD/svg11.dtd">
<svg version="1.1" id="Layer_1" xmlns="http://www.w3.org/2000/svg" xmlns:xlink="http://www.w3.org/1999/xlink" x="0px" y="0px"
	 viewBox="0 0 190 183.76" enable-background="new 0 0 190 183.76" xml:space="preserve">
<path fill="#262734" d="M161.749,172.008c2.299,0.305,3.894,1.302,3.873,3.843c-0.152-0.335-0.282-0.682-0.46-1.003
	c-0.813-1.469-2.499-2.318-4.043-1.721c-1.617,0.626-3.189,1.455-4.636,2.414c-2.213,1.467-4.193,3.305-6.468,4.654
	c-3.897,2.312-8.139,2.37-12.319,0.887c-2.076-0.736-4.048-1.862-5.918-3.047c-0.956-0.605-1.692-0.815-2.683-0.327
	c-0.605,0.298-1.263,0.49-2.207,0.846c1.659,0.971,3.079,1.802,4.499,2.633c-0.028,0.072-0.056,0.145-0.084,0.217
	c-1.623-0.675-3.236-1.375-4.874-2.011c-0.581-0.226-1.253-0.495-1.831-0.407c-5.046,0.769-9.662-0.06-14.02-2.913
	c-2.625-1.718-5.781-2.362-8.922-2.547c-2.556-0.15-4.088,1.068-4.932,3.584c-1.22,0.045-2.093-0.525-2.649-1.592
	c-0.485-0.932-0.179-2.783,0.851-3.512c1.009-0.715,2.255-1.423,3.436-1.495c2.06-0.126,4.151,0.239,6.23,0.398
	c-0.319-0.416-0.746-0.929-1.127-1.475c-3.02-4.323-3.808-9.155-3.543-14.334c0.269-5.272,2.537-9.835,4.661-14.46
	c4.187-9.117,8.552-18.153,12.612-27.325c1.087-2.456,1.511-5.256,1.907-7.946c0.199-1.352-0.346-2.813-0.555-4.225
	c-0.145-0.038-0.289-0.076-0.434-0.115c-1.588,1.424-3.197,2.827-4.761,4.277c-5.985,5.547-11.874,11.201-17.969,16.624
	c-2.628,2.338-3.755,5.363-4.998,8.414c-0.873,2.143-1.748,4.285-2.573,6.446c-0.152,0.397-0.147,0.898-0.079,1.329
	c0.542,3.405,0.776,6.802,0.391,10.259c-0.269,2.416-0.016,4.824,1.635,6.835c-0.099,0.066-0.197,0.132-0.296,0.198
	c-0.706-1.066-1.412-2.132-2.079-3.141c-0.927,1.882-0.326,5.34,1.55,6.724c1.484,1.094,3.137,1.103,4.712-0.123
	c0.9,0.736,1.278,2.628,0.746,3.733c-0.515,1.07-1.941,1.603-3.359,1.197c-2.945-0.844-4.048-3.205-4.738-5.871
	c-0.181-0.698-0.256-1.424-0.501-2.134c-0.791,2.82-0.895,5.635,0.196,8.517c-1.102-1.1-1.223-1.659-1.509-6.938
	c-0.549,1.083-0.972,1.936-1.409,2.781c-2.694,5.201-5.491,10.365-9.777,14.452c-5.126,4.889-11.266,7.612-18.432,7.131
	c-5.313-0.357-10.198-2.379-14.506-5.468c-2.425-1.739-4.508-1.353-6.768-0.031c-0.11,0.064-0.22,0.132-0.335,0.186
	c-0.073,0.034-0.156,0.047-0.236,0.068c0.519-1.078,1.483-1.553,4.458-2.11c-0.44-0.204-0.652-0.331-0.882-0.405
	c-2.337-0.75-4.685-1.06-7.005,0.028c-1.465,0.687-2.576,1.681-2.762,3.442c-0.027,0.258-0.427,0.641-0.695,0.679
	c-1.002,0.142-2.016,0.14-2.581-0.954c-0.679-1.313-0.224-3.182,1.286-3.867c1.484-0.673,3.153-1.126,4.776-1.259
	c1.862-0.153,3.762,0.152,5.517,0.251c-4.235-4.031-12.816-5.66-17.948-2.054c0.62-1.247,2.75-2.173,4.713-2.436
	c4.297-0.575,8.144,0.615,11.834,2.637c0.167,0.092,0.352,0.152,0.528,0.227c0.08-0.104,0.161-0.208,0.241-0.312
	c-0.806-0.706-1.579-1.455-2.424-2.11c-3.464-2.685-7.414-4.247-11.779-4.248c-3.828-0.001-7.391,1.128-10.14,4.036
	c-1.396,1.477-1.617,3.257-1.138,5.155c0.059,0.236,0.343,0.527,0.575,0.587c0.844,0.218,1.618,0.705,1.378,1.548
	c-0.217,0.765-0.845,1.666-1.536,2.001c-2.807,1.36-7.032-0.99-7.681-4.092c-0.728-3.484,1.159-5.854,3.592-7.723
	c3.627-2.787,7.853-3.687,12.451-3.507c3.825,0.15,7.364,1.042,10.746,2.717c0.993,0.492,1.922,1.112,2.839,1.65
	c-0.194-2.53-0.614-5.082-0.544-7.621c0.203-7.338,2.86-13.726,8.793-18.173c5.519-4.136,12.653-4.775,17.965-0.26
	c1.894,1.609,2.806,3.441,1.769,5.902c1.419-0.135,2.363-1.571,2.57-3.584c0.468-4.561-0.842-8.62-3.19-12.472
	c-2.107-3.456-4.909-6.31-7.571-9.304c-2.975-3.347-6.16-6.585-8.626-10.288c-3.689-5.537-5.131-11.714-2.915-18.377
	c0.322,1.514,0.605,3.037,0.974,4.539c1.172,4.769,2.637,9.443,5.662,13.404c1.433,1.876,3.206,3.489,4.771,5.269
	c5.646,6.426,9.73,13.693,11.54,22.107c0.477,2.219,0.622,4.52-0.192,6.758c-0.504,1.384-1.417,2.334-2.783,2.844
	c-0.256,0.096-0.644,0.179-0.819,0.055c-0.164-0.117-0.25-0.566-0.161-0.784c0.741-1.807,0.579-3.417-0.826-4.867
	c-1.279-1.321-2.76-2.054-4.624-2.285c-5.449-0.677-9.789,1.57-13.72,4.971c-4.402,3.807-6.691,8.825-7.501,14.42
	c-0.367,2.534,0.24,5.215,0.474,7.823c0.036,0.398,0.442,0.763,0.77,1.104c-1.054-6.648,0.514-12.327,5.723-16.772
	c-4.547,5.543-7.254,11.401-3.549,18.413c0.181-4.723,0.436-9.459,3.93-13.187c1.983-2.116,4.592-3.163,7.544-2.912
	c1.832,0.156,4.112,1.937,3.158,4.58c-0.525,1.452-1.117,1.82-2.738,1.523c-0.323-1.469-0.744-1.746-2.244-1.477
	c-4.853,0.87-8.717,5.574-8.539,10.51c0.034,0.937,0.417,1.86,0.791,2.777c0.905-3.108,1.942-5.994,5.253-7.352
	c-1.032,1.149-2.158,2.142-2.958,3.351c-1.491,2.255-1.35,4.723-0.419,7.169c0.128,0.337,0.417,0.671,0.72,0.875
	c3.035,2.04,6.209,3.808,9.756,4.816c0.204,0.058,0.411,0.118,0.62,0.148c0.122,0.017,0.253-0.023,0.428-0.042
	c0-0.938-0.047-1.874,0.008-2.804c0.351-6.022,2.377-11.55,5.083-16.858c2.739-5.372,5.938-10.469,9.782-15.115
	c1.472-1.779,1.564-3.728,1.238-5.69c-0.557-3.353-1.3-6.687-2.179-9.972c-1.226-4.582-4.077-8.38-6.38-12.431
	c-2.947-5.184-5.91-10.388-7.489-16.159c-1.227-4.485-2.202-9.085-2.755-13.697c-0.546-4.559-0.487-9.197-0.552-13.802
	c-0.019-1.336,0.448-2.68,0.69-4.011c0,4.162-0.072,8.31,0.016,12.454c0.161,7.565,1.752,14.864,4.446,21.916
	c2.35,6.151,5.43,11.917,8.963,17.488c2.804,4.422,4.54,9.374,5.492,14.55c0.359,1.953,0.551,3.937,0.853,6.161
	c1.522-1.859,2.904-3.502,4.218-5.197c0.209-0.27,0.24-0.808,0.144-1.165c-1.499-5.553-3.699-10.78-6.515-15.836
	c-4.815-8.645-7.782-18.024-9.173-27.802c-0.707-4.968-1.127-10.09-0.76-15.075c0.785-10.641,3.907-20.605,10.511-29.234
	c0.157-0.205,0.322-0.404,0.584-0.516c-1.127,2.616-2.344,5.198-3.362,7.856c-2.197,5.736-3.481,11.695-4.301,17.783
	c-0.906,6.724-0.787,13.449-0.15,20.154c0.828,8.709,2.966,17.07,6.845,25.007c2.774,5.675,5.024,11.607,7.507,17.421
	c1.375-1.535,2.967-3.313,4.549-5.08c-17.924-30.224-13.043-64.105,1.314-83.557c-1.392,2.668-2.924,5.462-4.324,8.321
	c-2.454,5.009-3.905,10.379-5.639,15.658c-2.355,7.17-2.134,14.506-1.961,21.84c0.291,12.417,4.172,23.874,9.807,34.809
	c0.324,0.629,0.79,1.183,1.371,2.039c0.9-2.935,1.716-5.567,2.5-8.208c0.06-0.203-0.074-0.489-0.175-0.71
	c-2.703-5.863-4.647-11.986-5.674-18.34c-2.806-17.355,0.55-33.315,11.288-47.465c1.531-2.018,3.286-3.872,4.999-5.745
	c0.615-0.673,0.989-1.232,0.783-2.242c-1.313-6.456,0.802-11.873,5.085-16.666c1.909-2.136,2.293-4.83,2.176-7.6
	c-0.04-0.962-0.169-1.919-0.169-2.892c1.191,1.937,1.138,4.124,1.207,6.321c2.976-2.231,4.579-9.288,3.127-13.874
	c1.415,1.533,1.384,3.294,1.232,5.03c-0.153,1.739-0.468,3.464-0.54,5.317c0.603-1.021,1.37-1.98,1.776-3.074
	c0.892-2.399,1.792-4.825,2.324-7.317c0.417-1.955,0.001-3.968-1.456-5.538c-1.026-1.105-1.767-1.096-2.853-0.054
	c-0.895,0.859-1.385,0.114-1.846-0.466c-0.935-1.175-0.387-2.255,0.325-3.296c0.781-1.142,2.261-1.705,3.625-1.426
	c2.757,0.563,4.4,2.307,5.347,4.874c1.079,2.925,0.371,5.773-0.719,8.408c-1.184,2.862-2.909,5.5-4.399,8.235
	c-0.158,0.29-0.322,0.576-0.362,0.648c2.308-0.147,4.688-0.444,7.065-0.418c4.09,0.045,7.128,2.349,7.849,6.13
	c0.651,3.417-0.313,6.885-4.595,7.482c-1.171,0.163-2.227-0.056-2.983-1.086c-0.599-0.816-0.687-1.645-0.093-2.49
	c0.169-0.24,0.389-0.457,0.625-0.633c0.506-0.376,1.394-0.644,1.486-1.088c0.23-1.112,0.22-2.286-0.615-3.308
	c-1.177-1.442-2.681-2.275-4.466-2.583c-2.157-0.373-4.297-0.322-6.733,0.702c2.91,0.561,5.489,1.009,6.9,3.445
	c-1.398-0.734-2.754-1.754-4.277-2.181c-3.233-0.906-5.798,0.577-7.879,2.939c-4.11,4.664-4.976,10.169-4.116,16.376
	c0.891-0.603,1.594-1.065,2.282-1.547c4.936-3.461,10.429-5.505,16.371-6.343c1.616-0.228,3.276-0.132,4.899-0.327
	c0.591-0.071,1.314-0.414,1.67-0.872c4.132-5.314,8.689-10.207,14.677-13.413c2.686-1.438,5.689-2.349,8.629-3.223
	c2.049-0.609,2.745,0.198,2.973,2.284c0.751,6.843-1.57,12.941-4.444,18.914c-0.648,1.346-1.385,2.648-2.221,4.235
	c3.496-1.113,5.993-3.152,8.181-5.663c-1.312,2.423-3.562,3.868-6.057,5.567c2.748-0.113,4.926-0.856,6.989-1.991
	c2.302-1.267,4-3.116,5.065-5.507c0.846-1.9,0.246-2.84-1.801-2.992c-0.507-1.76,0.37-2.804,2.144-2.47
	c1.85,0.349,3.028,1.491,3.631,3.274c0.555,1.642,0.12,3.02-0.983,4.274c-3.083,3.507-7.134,5.254-11.531,6.38
	c-0.489,0.125-0.98,0.239-1.454,0.664c2.456,0,4.911,0,7.367,0c-0.002,0.106-0.004,0.213-0.006,0.319
	c-3.601,0.745-7.176,0.866-10.822-0.425c0.77,1.051,1.553,2.092,2.307,3.155c2.158,3.041,3.859,6.35,4.358,10.042
	c1.15,8.507-0.407,16.386-6.969,22.418c-5.413,4.975-11.61,8.785-18.879,10.625c-5.249,1.328-10.353,1.155-15.514-1.103
	c-2.379,6.119-4.726,12.153-7.072,18.188c0.068,0.052,0.136,0.104,0.204,0.156c1.637-1.272,3.283-2.534,4.909-3.819
	c4.902-3.875,10.046-7.383,15.53-10.392c0.683-0.375,1.024-0.473,1.492,0.303c2.152,3.566,3.079,7.469,3.614,11.558
	c1,7.639-1.171,14.781-3.588,21.768c-2.739,7.919-6.097,15.626-9.28,23.387c-1.542,3.759-2.709,7.623-2.907,11.655
	c-0.364,7.402,1.961,9.884,8.89,11.66c1.988,0.51,4.131,0.42,6.278,0.406c-7.822-6.658-8.848-15.309-7.722-24.609
	c0,1.601-0.057,3.204,0.01,4.802c0.239,5.644,1.559,10.964,5.141,15.476c1.061,1.336,2.436,2.429,3.724,3.57
	c0.252,0.223,0.764,0.199,1.157,0.202c0.335,0.003,0.68-0.089,1.006-0.187c2.998-0.904,2.908-0.823,0.818-3.054
	c-1.713-1.829-2.803-4.07-3.537-6.502c-2.487-8.235-0.196-15.693,4.213-22.481c6.501-10.01,13.394-19.767,20.235-29.552
	c2.979-4.261,6.204-8.344,8.435-13.087c2.733-5.812,4.712-11.866,5.48-18.241c1.006-8.344,0.489-16.539-3.044-24.349
	c-1.228-2.713-2.305-5.495-3.596-8.594c0.93,0.934,1.762,1.608,2.397,2.434c3.509,4.559,5.791,9.713,7.074,15.295
	c2.554,11.113,0.631,21.647-4.31,31.75c-1.56,3.19-2.992,6.475-4.876,9.468c-2.169,3.447-4.743,6.643-7.198,9.905
	c-3.985,5.295-8.081,10.508-12.004,15.847c-2.669,3.633-5.171,7.393-7.662,11.153c-3,4.529-4.758,9.534-4.8,14.978
	c-0.038,4.876,1.641,9.173,5.243,12.618c0.556,0.532,0.961,0.579,1.525,0.069c1.912-1.73,3.01-3.845,3.011-6.444
	c0.001-1.152-0.074-2.317-0.263-3.452c-0.145-0.873-0.728-1.377-1.717-1.457c-0.32-0.026-0.81-0.583-0.853-0.942
	c-0.227-1.875,1.839-3.147,3.923-2.431c2.172,0.746,3.117,2.559,3.517,4.594c0.842,4.295-0.952,7.63-4.176,10.315
	c-0.82,0.683-1.756,1.227-2.754,1.914c2.36,1.745,4.753,3.275,7.645,3.747c3.972,0.648,7.312-2.14,8.419-5.53
	c0.317-0.971,0.518-1.995,0.64-3.011c0.116-0.975-0.269-1.749-1.28-2.127c-0.894-0.334-1.155-1.269-0.417-1.83
	c0.518-0.394,1.495-0.803,1.917-0.57c0.786,0.433,1.573,1.235,1.876,2.061c0.279,0.76,0.1,1.815-0.184,2.634
	c-1.252,3.617-3.227,6.711-6.726,8.629c3.173-0.771,5.526-2.666,7.399-5.266c1.895-2.631,2.856-5.5,2.307-8.803
	c1.472,2.172,1.023,4.351,0.073,6.451c-1.185,2.618-2.841,4.897-5.349,6.443c-0.291,0.179-0.572,0.375-0.768,0.657
	c2.018,0.051,3.335-1.169,4.65-2.303c3.878-3.343,5.544-7.646,4.172-12.413c-0.557-1.935-1.785-3.261-3.787-3.618
	c-1.215-0.217-1.791-0.944-1.797-1.98c-0.006-1.033,0.633-1.85,1.685-2.215c1.65-0.573,3.091-0.061,4.263,1.06
	c2.452,2.345,3.223,5.344,2.81,8.607c-0.222,1.75-0.821,3.451-1.227,5.082c2.294-2.55,5.563-7.689,2.482-14.246
	c0.474,0.851,1.063,1.66,1.391,2.564c0.324,0.892,0.385,1.879,0.578,2.914c0.83-1.277,1.026-3.361,0.342-5.498
	c-1.339-4.182-3.469-7.632-8.2-8.7c-3.446-0.778-6.573-0.096-9.502,1.712c-1.562,0.964-1.728,2.035-0.634,3.519
	c0.796,1.079,0.021,1.773-0.662,2.258c-1.438,1.021-3.004,1.057-4.551,0.101c-1.301-0.804-2.096-2.414-1.798-3.991
	c0.673-3.568,2.394-6.432,5.451-8.555c7.047-4.895,14.095-9.798,20.976-14.921c2.49-1.854,4.506-4.345,6.375-6.188
	c-0.987,2.048-2.699,4.299-4.966,5.985c-5.751,4.277-11.61,8.408-17.427,12.597c-1.384,0.997-2.77,1.991-4.035,3.244
	c0.731-0.253,1.456-0.524,2.193-0.756c4.38-1.379,8.258-0.187,11.654,2.589c4.433,3.625,6.333,8.582,6.594,14.156
	c0.129,2.762-1.129,5.251-2.246,7.834c1.231-0.926,2.447-1.873,3.696-2.775c2.715-1.962,5.398-4.067,8.75-4.776
	c3.713-0.786,7.513-0.563,10.353,2.134c4.393,4.173,5.118,9.919,0.787,14.841c-1.267,1.44-2.715,2.505-4.8,2.234
	c-1.81-0.235-2.907-1.579-2.416-3.166c0.133-0.432,0.623-0.968,1.039-1.062c2.923-0.664,4.46-2.731,4.156-5.751
	c-0.345-3.433-3.258-6.421-6.949-6.841c-3.909-0.444-7.488,0.492-10.355,2.973c1.958-0.199,4.078-0.592,6.195-0.579
	c2.163,0.013,4.066,0.912,4.886,3.115c0.29,0.779,0.142,1.721,0.194,2.589c-0.143,0.019-0.287,0.038-0.43,0.057
	c-0.105-0.156-0.285-0.303-0.305-0.469c-0.386-3.171-1.679-4.581-4.806-4.748c-3.491-0.186-6.392,1.437-9.259,3.381
	c1.676-0.306,3.207-0.771,4.753-0.828c2.636-0.097,4.686,1.111,5.746,3.573c1.013,2.353,0.24,4.454-1.367,6.282
	c-1.885,2.145-3.547,2.671-5.257,1.751c-0.987-0.531-1.453-2.007-0.752-2.86c0.337-0.411,1.046-0.692,1.6-0.716
	c1.638-0.069,2.175-0.378,2.869-2.027c0.54-1.284,0.345-2.536-0.647-3.435c-1.603-1.453-3.444-2.085-5.579-1.334
	c-0.787,0.277-1.544,0.642-2.314,0.967C161.772,171.762,161.761,171.885,161.749,172.008z M130.929,88.531
	c-1.288,0.286-2.563,0.678-3.866,0.838c-3.833,0.471-7.57,0.252-10.851-2.114c-1.552-1.119-2.957-2.403-3.15-4.481
	c-0.109-1.176,0.139-2.445,1.278-2.845c0.784-0.276,1.885,0.072,2.745,0.4c0.478,0.182,1.116,0.849,0.097,1.442
	c-0.187,0.109-0.282,0.636-0.201,0.903c0.865,2.847,2.464,4.944,5.588,5.595c2.393,0.498,4.696,0.176,6.967-0.516
	c1.683-0.512,3.323-1.163,4.982-1.752c-3.322-0.433-6.99,0.472-8.287-3.877c1.543,2.105,2.809,2.935,5.484,2.685
	c2.011-0.188,4.003-0.816,5.943-1.437c0.931-0.298,1.925-0.863,2.543-1.599c2.644-3.153,3.643-6.96,3.895-10.979
	c0.271-4.328-0.231-8.596-1.291-12.795c-0.916-3.627-2.152-7.117-4.357-9.91c-3.428,3.745-6.839,7.472-10.312,11.266
	c2.398,4.326,2.58,4.788,1.892,10.408c-0.405,3.314-1.855,6.166-4.753,8.057c-1.702,1.111-3.548,1.721-5.597,0.994
	c-1.788-0.634-2.862-2.913-2.223-4.68c0.682-1.885,2.607-2.869,4.409-2.255c-0.079,1.322,0.175,1.592,1.458,1.596
	c1.948,0.007,3.342-0.967,4.038-2.68c1.344-3.305,1.377-6.686,0.159-10.069c-0.337-0.937-0.802-0.932-1.538-0.45
	c-2.319,1.521-4.856,2.595-7.601,2.895c-1.232,0.135-1.655,0.704-2.036,1.659c-2.738,6.872-5.5,13.735-8.243,20.606
	c-0.899,2.252-1.763,4.518-2.628,6.738c3.399,2.517,11.548,2.476,13.92,0.929c-2.021-0.506-4.124-0.681-5.711-2.589
	C120.016,93.396,125.641,92.041,130.929,88.531z M93.376,51.269c-9.556,11.319-14.69,24.599-15.62,39.455
	c-0.602,9.618,0.343,19.128,3.625,28.634c0.274-0.575,0.419-0.792,0.486-1.031c3.275-11.598,7.254-22.934,12.483-33.813
	c0.214-0.444,0.072-1.255-0.208-1.707c-1.061-1.711-1.791-3.526-1.878-5.531c-0.233-5.332,1.695-9.912,5.046-13.954
	c0.974-1.175,2.02-2.29,2.821-3.193C97.842,57.126,95.659,54.262,93.376,51.269z M118.388,39.38
	c-0.073-0.186-0.146-0.372-0.219-0.559c-2.987,0.481-6.03,0.741-8.947,1.491c-5.196,1.336-9.619,4.117-13.25,8.088
	c-0.396,0.433-0.878,1.189-0.751,1.633c0.908,3.176,2.28,6.117,4.865,8.341c0.742,0.638,1.316,0.662,2.144,0.039
	c1.365-1.028,2.773-2.107,4.335-2.735c1.709-0.686,2.82-1.757,3.741-3.274C112.958,48.036,115.689,43.718,118.388,39.38z
	 M87.458,138.907c-0.137-0.015-0.275-0.031-0.412-0.046c-0.879,2.034-1.73,4.08-2.642,6.099c-3.89,8.608-7.948,17.123-14.042,24.466
	c-3.577,4.31-7.642,8.041-12.704,10.572c-0.458,0.229-0.897,0.496-1.587,0.88c0.486,0.073,0.65,0.129,0.809,0.117
	c0.687-0.051,1.373-0.118,2.059-0.185c5.923-0.578,10.896-3.163,14.68-7.655c2.585-3.07,4.876-6.441,6.919-9.901
	c3.107-5.264,6.265-10.592,6.882-16.867C87.661,143.915,87.458,141.401,87.458,138.907z M72.846,144.946
	c-0.087-0.049-0.175-0.097-0.262-0.146c-0.563,0.724-1.116,1.456-1.69,2.171c-2.749,3.418-5.708,6.689-8.207,10.28
	c-3.697,5.311-7.132,10.809-10.54,16.313c-0.996,1.609-1.265,3.566-0.648,5.452c0.188,0.575,0.726,1.328,1.221,1.429
	c0.517,0.106,1.363-0.322,1.738-0.783c1.601-1.968,3.225-3.943,4.579-6.081c4.236-6.685,7.563-13.844,10.669-21.107
	C70.776,149.974,71.801,147.456,72.846,144.946z M145.477,23.021c-0.175-0.027-0.35-0.055-0.525-0.082
	c-6.169,5.061-11.505,10.885-16.014,17.284c2.71,1.542,5.299,3.014,7.939,4.516c-0.037,0.024,0.061-0.007,0.103-0.073
	c3.298-5.186,6.197-10.573,7.832-16.532C145.263,26.492,145.268,24.729,145.477,23.021z M128.041,40.996
	c-2.18,3.987-4.371,7.957-6.501,11.958c-0.168,0.316-0.079,1.081,0.164,1.255c1.834,1.314,3.737,2.531,5.744,3.862
	c3.551-3.267,6.458-7.262,8.665-11.77c0.143-0.291-0.008-0.95-0.259-1.175C133.7,43.193,131.338,41.605,128.041,40.996z
	 M95.172,82.964c3.272-7.177,6.461-14.171,9.645-21.155c-2.11-1.126-2.184-1.137-3.586,0.431c-3.554,3.973-5.986,8.565-7.336,13.709
	C93.27,78.333,93.138,80.712,95.172,82.964z M126.359,58.922c-1.416-2.057-3.324-3.261-5.75-3.902
	c-1.063,2.512-2.101,4.963-3.201,7.564C120.991,62.516,123.739,61.079,126.359,58.922z M103.345,59.919
	c0.021,0.163,0.042,0.325,0.063,0.488c0.664,0.075,1.707,0.449,1.926,0.172c0.852-1.078,1.443-2.362,2.131-3.569
	c-0.1-0.078-0.2-0.157-0.301-0.235C105.892,57.823,104.618,58.871,103.345,59.919z"/>
</svg>
