<?xml version="1.0" encoding="utf-8"?>
<!-- Generator: Adobe Illustrator 17.1.0, SVG Export Plug-In . SVG Version: 6.00 Build 0)  -->
<!DOCTYPE svg PUBLIC "-//W3C//DTD SVG 1.1//EN" "http://www.w3.org/Graphics/SVG/1.1/DTD/svg11.dtd">
<svg version="1.1" id="Layer_1" xmlns="http://www.w3.org/2000/svg" xmlns:xlink="http://www.w3.org/1999/xlink" x="0px" y="0px"
	 viewBox="0 0 699 512" enable-background="new 0 0 699 512" xml:space="preserve">
<g>
	<rect fill="#262734" width="699" height="512"/>
	<g>
		<defs>
			<rect id="SVGID_1_" width="699" height="512"/>
		</defs>
		<clipPath id="SVGID_2_">
			<use xlink:href="#SVGID_1_"  overflow="visible"/>
		</clipPath>
		<g clip-path="url(#SVGID_2_)">
			<g>
				<polyline fill="none" stroke="#404261" stroke-width="24" stroke-miterlimit="10" points="149.092,-16.05 21.092,171.95 
					-22.241,265.283 				"/>
				<polyline fill="none" stroke="#404261" stroke-width="5" stroke-miterlimit="10" points="180.426,91.283 586.426,39.95 
					705.759,48.617 				"/>
				<path fill="none" stroke="#404261" stroke-width="5" stroke-miterlimit="10" d="M598.426,77.95"/>
				
					<line fill="none" stroke="#404261" stroke-width="5" stroke-miterlimit="10" x1="190.426" y1="132.617" x2="598.426" y2="77.95"/>
				<polyline fill="none" stroke="#404261" stroke-width="5" stroke-miterlimit="10" points="704.426,90.617 617.759,115.95 
					190.426,173.95 79.759,128.617 -15.574,83.95 				"/>
				
					<line fill="none" stroke="#404261" stroke-width="5" stroke-miterlimit="10" x1="402.426" y1="-9.383" x2="464.426" y2="515.95"/>
				
					<line fill="none" stroke="#404261" stroke-width="5" stroke-miterlimit="10" x1="399.759" y1="521.283" x2="334.426" y2="-11.383"/>
				
					<line fill="none" stroke="#404261" stroke-width="5" stroke-miterlimit="10" x1="638.426" y1="195.95" x2="203.092" y2="251.283"/>
				
					<line fill="none" stroke="#404261" stroke-width="5" stroke-miterlimit="10" x1="634.426" y1="43.283" x2="657.759" y2="104.617"/>
				<polyline fill="none" stroke="#404261" stroke-width="5" stroke-miterlimit="10" points="700.426,307.95 217.759,367.283 
					-9.908,255.617 				"/>
				<polyline fill="none" stroke="#404261" stroke-width="5" stroke-miterlimit="10" points="712.426,345.95 221.759,407.283 
					-18.908,296.617 				"/>
				
					<line fill="none" stroke="#404261" stroke-width="5" stroke-miterlimit="10" x1="705.759" y1="428.617" x2="457.092" y2="459.95"/>
				
					<line fill="none" stroke="#404261" stroke-width="5" stroke-miterlimit="10" x1="714.426" y1="469.283" x2="317.759" y2="521.283"/>
				
					<line fill="none" stroke="#404261" stroke-width="5" stroke-miterlimit="10" x1="117.759" y1="520.617" x2="45.092" y2="433.283"/>
				<polyline fill="none" stroke="#404261" stroke-width="5" stroke-miterlimit="10" points="-10.908,502.617 75.759,431.95 
					175.092,217.95 				"/>
				
					<line fill="none" stroke="#404261" stroke-width="5" stroke-miterlimit="10" x1="41.092" y1="517.95" x2="119.092" y2="449.283"/>
				<polyline fill="none" stroke="#404261" stroke-width="5" stroke-miterlimit="10" points="97.759,519.95 167.092,468.617 
					220.426,448.617 146.426,455.95 				"/>
				<polyline fill="none" stroke="#404261" stroke-width="5" stroke-miterlimit="10" points="137.759,449.283 203.092,314.617 
					27.092,231.617 				"/>
				<line fill="none" stroke="#404261" stroke-width="5" stroke-miterlimit="10" x1="173.759" y1="55.95" x2="-2.241" y2="421.95"/>
				
					<line fill="none" stroke="#404261" stroke-width="5" stroke-miterlimit="10" x1="51.759" y1="-13.383" x2="103.092" y2="34.617"/>
				<polyline fill="none" stroke="#404261" stroke-width="5" stroke-miterlimit="10" points="-6.908,174.617 60.426,38.617 
					-3.574,-8.05 				"/>
				<line fill="none" stroke="#404261" stroke-width="5" stroke-miterlimit="10" x1="34.426" y1="20.617" x2="57.092" y2="-9.383"/>
				
					<line fill="none" stroke="#404261" stroke-width="5" stroke-miterlimit="10" x1="171.759" y1="10.617" x2="315.759" y2="-9.383"/>
				
					<line fill="none" stroke="#404261" stroke-width="5" stroke-miterlimit="10" x1="207.092" y1="327.617" x2="374.426" y2="309.283"/>
				
					<line fill="none" stroke="#404261" stroke-width="5" stroke-miterlimit="10" x1="204.426" y1="290.617" x2="367.092" y2="276.617"/>
				
					<line fill="none" stroke="#404261" stroke-width="5" stroke-miterlimit="10" x1="703.759" y1="267.95" x2="655.092" y2="273.283"/>
				
					<line fill="none" stroke="#404261" stroke-width="5" stroke-miterlimit="10" x1="199.092" y1="265.617" x2="48.092" y2="195.617"/>
				
					<line fill="none" stroke="#404261" stroke-width="5" stroke-miterlimit="10" x1="234.092" y1="449.617" x2="-7.574" y2="338.617"/>
			</g>
			<g>
				<polyline fill="none" stroke="#7F8092" stroke-width="16" stroke-miterlimit="10" points="235.092,515.283 173.759,39.95 
					170.426,-0.717 				"/>
				<polyline fill="none" stroke="#7F8092" stroke-width="16" stroke-miterlimit="10" points="-9.574,235.283 197.092,210.617 
					633.092,155.283 703.092,131.95 				"/>
				
					<line fill="none" stroke="#7F8092" stroke-width="16" stroke-miterlimit="10" x1="-5.574" y1="303.283" x2="119.759" y2="39.283"/>
				<polyline fill="none" stroke="#7F8092" stroke-width="16" stroke-miterlimit="10" points="-8.241,387.283 139.759,453.95 
					167.092,468.617 236.426,517.95 				"/>
				
					<line fill="none" stroke="#7F8092" stroke-width="16" stroke-miterlimit="10" x1="173.092" y1="213.283" x2="61.759" y2="162.617"/>
				<path fill="none" stroke="#7F8092" stroke-width="16" stroke-miterlimit="10" d="M-14.241,35.95
					c2.667,0,282.667,2.667,282.667,2.667l300-38l136.667,6.667"/>
				
					<line fill="none" stroke="#7F8092" stroke-width="16" stroke-miterlimit="10" x1="478.426" y1="12.617" x2="541.092" y2="516.617"/>
				
					<line fill="none" stroke="#7F8092" stroke-width="16" stroke-miterlimit="10" x1="551.759" y1="3.95" x2="615.092" y2="516.617"/>
				<polyline fill="none" stroke="#7F8092" stroke-width="16" stroke-miterlimit="10" points="571.759,1.283 635.759,157.283 
					684.426,517.95 				"/>
				
					<line fill="none" stroke="#7F8092" stroke-width="16" stroke-miterlimit="10" x1="187.092" y1="131.95" x2="96.426" y2="87.95"/>
				
					<line fill="none" stroke="#7F8092" stroke-width="16" stroke-miterlimit="10" x1="226.426" y1="447.95" x2="700.426" y2="390.617"/>
				
					<line fill="none" stroke="#7F8092" stroke-width="16" stroke-miterlimit="10" x1="-6.241" y1="427.283" x2="103.759" y2="437.283"/>
				
					<line fill="none" stroke="#7F8092" stroke-width="16" stroke-miterlimit="10" x1="260.426" y1="-2.05" x2="329.092" y2="516.617"/>
			</g>
		</g>
	</g>
	<circle fill="#A01723" cx="319.592" cy="216.117" r="19.5"/>
	<polygon fill="#FFFFFF" points="331.411,233.996 320.085,217.67 308.759,233.996 296.085,233.996 296.085,303.357 543.085,303.357 
		543.085,233.996 	"/>
	<circle fill="#8C8E91" stroke="#FFFFFF" stroke-width="2" stroke-miterlimit="10" cx="272.085" cy="63.496" r="18"/>
	<circle fill="#8C8E91" stroke="#FFFFFF" stroke-width="2" stroke-miterlimit="10" cx="633.585" cy="191.496" r="18"/>
	<circle fill="#8C8E91" stroke="#FFFFFF" stroke-width="2" stroke-miterlimit="10" cx="490.085" cy="37.996" r="18"/>
	<circle fill="#EC5918" stroke="#FFFFFF" stroke-width="2" stroke-miterlimit="10" cx="145.752" cy="410.33" r="18"/>
	<circle fill="#30AE44" stroke="#FFFFFF" stroke-width="2" stroke-miterlimit="10" cx="176.249" cy="112.849" r="18"/>
	<rect x="306.576" y="248.994" fill="none" width="229.509" height="45.003"/>
	<text transform="matrix(1 0 0 1 306.5764 262.5207)"><tspan x="0" y="0" font-family="'DIN-Medium'" font-size="19">On the corner of Grand &amp; </tspan><tspan x="0" y="22.801" font-family="'DIN-Medium'" font-size="19">Lorimer in Williamsburg</tspan></text>
	<text transform="matrix(1 0 0 1 265.085 71.4963)" fill="#FFFFFF" font-family="'Helvetica-Bold'" font-size="24">L</text>
	<text transform="matrix(1 0 0 1 626.5847 199.4963)" fill="#FFFFFF" font-family="'Helvetica-Bold'" font-size="24">L</text>
	<text transform="matrix(1 0 0 1 483.0847 45.9963)" fill="#FFFFFF" font-family="'Helvetica-Bold'" font-size="24">L</text>
	<g>
		<circle fill="#855D38" stroke="#FFFFFF" stroke-width="2" stroke-miterlimit="10" cx="103.085" cy="410.33" r="18"/>
		<text transform="matrix(1 0 0 1 96.0845 418.3296)" fill="#FFFFFF" font-family="'Helvetica-Bold'" font-size="24">J</text>
	</g>
	<text transform="matrix(1 0 0 1 135.7515 418.3296)" fill="#FFFFFF" font-family="'Helvetica-Bold'" font-size="24">M</text>
	<g>
		<circle fill="#30AE44" stroke="#FFFFFF" stroke-width="2" stroke-miterlimit="10" cx="228.752" cy="453.33" r="18"/>
		<text transform="matrix(1 0 0 1 219.1265 461.7046)" fill="#FFFFFF" font-family="'Helvetica-Bold'" font-size="24">G</text>
	</g>
	<text transform="matrix(1 0 0 1 166.2495 121.8491)" fill="#FFFFFF" font-family="'Helvetica-Bold'" font-size="24">G</text>
	<text transform="matrix(1 0 0 1 42.8979 119.95)" fill="#FFFFFF" font-family="'DIN-Medium'" font-size="19">Metropolitan</text>
	<text transform="matrix(1 0 0 1 179.5701 68.6167)" fill="#FFFFFF" font-family="'DIN-Medium'" font-size="19">Lorimer</text>
	<text transform="matrix(1 0 0 1 396.3113 42.6167)" fill="#FFFFFF" font-family="'DIN-Medium'" font-size="19">Graham</text>
	<text transform="matrix(1 0 0 1 555.0715 198.6167)" fill="#FFFFFF" font-family="'DIN-Medium'" font-size="19">Grand</text>
	<text transform="matrix(1 0 0 1 21.1548 418.6167)" fill="#FFFFFF" font-family="'DIN-Medium'" font-size="19">Hewes</text>
	<text transform="matrix(1 0 0 1 119.3606 461.95)" fill="#FFFFFF" font-family="'DIN-Medium'" font-size="19">Broadway</text>
	<g opacity="0.5">
		
			<text transform="matrix(0.5489 -0.8359 0.8359 0.5489 13.2214 192.4317)" fill="#0E0603" font-family="'DIN-Bold'" font-size="12">BQE 278</text>
	</g>
	
		<text transform="matrix(0.9928 -0.1198 0.1198 0.9928 283.8122 40.0423)" opacity="0.5" fill="#0E0603" font-family="'DIN-Bold'" font-size="14">Metropolitan Ave</text>
	
		<text transform="matrix(0.9928 -0.1198 0.1198 0.9928 351.4714 194.8259)" opacity="0.5" fill="#0E0603" font-family="'DIN-Bold'" font-size="14">Grand St</text>
	
		<text transform="matrix(0.9928 -0.1198 0.1198 0.9928 363.5498 435.7469)" opacity="0.5" fill="#0E0603" font-family="'DIN-Bold'" font-size="14">Montrose Ave</text>
	
		<text transform="matrix(0.1108 0.9939 -0.9939 0.1108 577.3857 241.2982)" opacity="0.5" fill="#0E0603" font-family="'DIN-Bold'" font-size="14">Humboldt St</text>
	
		<text transform="matrix(0.1108 0.9939 -0.9939 0.1108 640.8934 227.8812)" opacity="0.5" fill="#0E0603" font-family="'DIN-Bold'" font-size="14">Bushwick Ave</text>
	
		<text transform="matrix(0.1318 0.9913 -0.9913 0.1318 481.6666 76.2386)" opacity="0.5" fill="#0E0603" font-family="'DIN-Bold'" font-size="14">Graham Ave</text>
	
		<text transform="matrix(0.8344 0.5512 -0.5512 0.8344 167.3102 475.4204)" opacity="0.5" fill="#0E0603" font-family="'DIN-Bold'" font-size="14">Broadway</text>
	
		<text transform="matrix(0.1198 0.9928 -0.9928 0.1198 272.4618 111.088)" opacity="0.5" fill="#0E0603" font-family="'DIN-Bold'" font-size="14">Lorimer St</text>
	
		<text transform="matrix(0.1198 0.9928 -0.9928 0.1198 300.4618 335.088)" opacity="0.5" fill="#0E0603" font-family="'DIN-Bold'" font-size="14">Lorimer St</text>
	
		<text transform="matrix(0.1198 0.9928 -0.9928 0.1198 200.7628 283.5826)" opacity="0.5" fill="#0E0603" font-family="'DIN-Bold'" font-size="14">Union Ave</text>
</g>
</svg>
