<?xml version="1.0" encoding="utf-8"?>
<!-- Generator: Adobe Illustrator 17.1.0, SVG Export Plug-In . SVG Version: 6.00 Build 0)  -->
<!DOCTYPE svg PUBLIC "-//W3C//DTD SVG 1.1//EN" "http://www.w3.org/Graphics/SVG/1.1/DTD/svg11.dtd">
<svg version="1.1" id="Layer_1" xmlns="http://www.w3.org/2000/svg" xmlns:xlink="http://www.w3.org/1999/xlink" x="0px" y="0px"
	 viewBox="0 0 100 100" enable-background="new 0 0 100 100" xml:space="preserve">
<g>
	<path fill="#FFFFFF" d="M88.426,30.539c0.06,0.857,0.06,1.713,0.06,2.57c0,26.115-19.877,56.207-56.207,56.207
		c-11.193,0-21.59-3.242-30.336-8.868c1.589,0.183,3.119,0.244,4.77,0.244c9.235,0,17.737-3.119,24.525-8.439
		c-8.684-0.183-15.963-5.872-18.471-13.701c1.224,0.183,2.447,0.305,3.731,0.305c1.774,0,3.547-0.244,5.2-0.672
		C12.646,56.35,5.858,48.4,5.858,38.797c0-0.062,0-0.183,0-0.245c2.629,1.468,5.687,2.387,8.93,2.508
		C9.465,37.512,5.98,31.457,5.98,24.607c0-3.669,0.979-7.033,2.69-9.969c9.725,11.987,24.343,19.815,40.735,20.673
		c-0.305-1.468-0.489-2.997-0.489-4.526c0-10.887,8.806-19.755,19.755-19.755c5.687,0,10.824,2.385,14.433,6.239
		c4.465-0.857,8.746-2.508,12.539-4.772c-1.468,4.588-4.588,8.441-8.686,10.887c3.976-0.429,7.829-1.529,11.376-3.059
		C95.643,24.24,92.279,27.726,88.426,30.539z"/>
</g>
</svg>
