<?xml version="1.0" encoding="utf-8"?>
<!-- Generator: Adobe Illustrator 17.1.0, SVG Export Plug-In . SVG Version: 6.00 Build 0)  -->
<!DOCTYPE svg PUBLIC "-//W3C//DTD SVG 1.1//EN" "http://www.w3.org/Graphics/SVG/1.1/DTD/svg11.dtd">
<svg version="1.1" id="Layer_1" xmlns="http://www.w3.org/2000/svg" xmlns:xlink="http://www.w3.org/1999/xlink" x="0px" y="0px"
	 viewBox="0 0 100 100" enable-background="new 0 0 100 100" xml:space="preserve">
<g>
	<path fill="#FFFFFF" d="M96.752,84.224c0,6.551-5.4,11.951-11.951,11.951H15.516c-6.551,0-11.951-5.4-11.951-11.951V14.938
		c0-6.551,5.4-11.951,11.951-11.951h69.285c6.551,0,11.951,5.4,11.951,11.951V84.224z M86.195,42.422h-8.191
		c0.789,2.487,1.214,5.216,1.214,7.948c0,15.531-12.983,28.09-29,28.09c-15.956,0-28.94-12.558-28.94-28.09
		c0-2.732,0.425-5.462,1.214-7.948h-8.555v39.314c0,2.063,1.638,3.701,3.701,3.701h64.855c2.063,0,3.701-1.638,3.701-3.701V42.422z
		 M50.219,31.258c-10.315,0-18.686,8.13-18.686,18.141c0,10.011,8.371,18.14,18.686,18.14c10.375,0,18.746-8.13,18.746-18.14
		C68.965,39.388,60.594,31.258,50.219,31.258z M86.195,17.547c0-2.305-1.881-4.186-4.186-4.186H71.453
		c-2.306,0-4.187,1.881-4.187,4.186v10.011c0,2.306,1.881,4.186,4.187,4.186H82.01c2.305,0,4.186-1.879,4.186-4.186V17.547z"/>
</g>
</svg>
